<svg width="4496" height="600" viewBox="0 0 4496 600" fill="none" xmlns="http://www.w3.org/2000/svg">
<g clip-path="url(#clip0_6276_1489)">
<path d="M0.666797 1.59867C0.266797 2.532 0.133464 137.465 0.266797 301.332L0.666797 599.332H2248H4495.33V299.999V0.665333L2248.27 0.265333C451.333 -0.00133334 1.0668 0.265333 0.666797 1.59867ZM4480 299.999V583.999H2248H16.0001V299.999V15.9987H2248H4480V299.999Z" fill="black"/>
<path d="M2418.93 146.798C2360.93 158.932 2320.93 202.398 2308.53 266.665C2305.33 283.598 2305.2 319.598 2308.4 336.798C2320 399.998 2361.2 443.998 2418.27 453.998C2432.8 456.532 2459.07 456.532 2473.6 453.998C2537.47 442.932 2579.47 396.132 2588.67 325.732C2600.8 233.198 2555.2 159.598 2477.47 145.998C2461.6 143.198 2434.4 143.598 2418.93 146.798ZM2464.27 189.465C2503.33 197.732 2529.47 237.998 2531.6 292.665C2533.2 334.532 2522.13 368.798 2500.13 390.665C2484.27 406.398 2466.93 412.798 2444 411.598C2427.87 410.665 2417.33 407.065 2404.93 398.132C2374.93 376.665 2359.33 329.998 2365.33 279.998C2371.33 230.665 2396.67 196.532 2432.67 189.332C2440.67 187.732 2456.27 187.865 2464.27 189.465Z" fill="#692C9F"/>
<path d="M3114.53 145.2C3100.8 147.733 3086.67 152.4 3074 158.667C3022 184 2992.13 241.6 2995.07 310.667C2996.67 349.6 3007.73 381.867 3027.87 406.933C3054 439.467 3089.87 456 3134.67 456C3163.07 456 3189.73 449.2 3211.07 436.4C3223.73 428.8 3241.87 412.133 3250.13 400.533C3262.93 382.667 3273.33 355.067 3277.47 328.667C3280 312.933 3279.6 277.867 3276.8 263.333C3267.07 211.867 3240.67 175.067 3200.4 156.4C3182.4 148.133 3167.73 145.067 3142.67 144.533C3130.53 144.4 3117.87 144.667 3114.53 145.2ZM3162 191.867C3173.2 195.867 3187.07 205.733 3194.8 215.2C3214.13 239.067 3223.87 277.2 3220.27 315.067C3214.53 375.2 3183.07 412 3137.33 412C3097.6 412 3067.73 383.733 3056.53 335.333C3053.07 320.667 3052.93 281.333 3056.27 266.4C3065.33 225.333 3088 197.733 3119.07 189.867C3129.33 187.2 3151.87 188.267 3162 191.867Z" fill="#692C9F"/>
<path d="M4112.53 146.001C4098.53 148.534 4088.53 151.734 4078.13 156.934C4046.13 173.067 4029.2 201.334 4031.07 235.334C4032.27 256.401 4039.87 272.134 4056 287.067C4068.8 298.801 4083.33 307.067 4110.53 318.001C4144.67 331.601 4157.2 339.867 4162.93 352.934C4172.13 373.867 4162.27 397.067 4140.67 405.201C4136.27 406.801 4128.13 408.934 4122.4 409.734C4102.53 412.534 4071.73 406.934 4048.93 396.401C4043.33 393.734 4038.4 391.867 4038.13 392.134C4037.87 392.401 4034.93 402.534 4031.6 414.667L4025.73 436.667L4035.73 441.467C4068.8 457.467 4124.8 460.534 4160.4 448.134C4184.27 439.867 4204.67 422.801 4213.87 403.734C4229.47 371.201 4224.13 332.401 4200.67 308.534C4187.6 295.201 4172.4 286.267 4143.07 274.534C4106.67 260.134 4091.47 249.067 4088 234.801C4083.73 216.667 4092.93 200.401 4111.87 193.201C4128.4 186.801 4159.07 188.667 4183.07 197.467C4189.07 199.734 4194.8 201.601 4195.87 201.734C4197.2 201.867 4199.6 195.734 4204.13 180.667C4209.87 162.001 4210.4 159.201 4208.67 157.867C4204.4 154.667 4181.47 148.134 4167.87 146.134C4151.07 143.601 4125.73 143.601 4112.53 146.001Z" fill="#692C9F"/>
<path d="M426.133 146.8C349.467 154.934 294.667 196.934 278.8 259.734C272.667 283.6 271.867 316.134 276.533 338.4C289.067 396.8 327.733 435.2 387.6 448.667C430.933 458.534 490.667 455.2 539.867 440.134L547.333 437.867V361.334V284.667L491.067 284.267L434.667 284V306V328H462.667H490.667V366V403.867L485.733 405.2C466.667 410.267 430.267 410.534 412.667 405.6C377.333 395.867 354.533 376.134 342.8 345.467C336.667 329.467 335.333 321.2 335.467 299.334C335.6 275.867 338 264.8 346.8 246.667C351.333 237.6 354.667 233.067 363.867 223.867C380.667 207.2 397.067 198.934 423.867 193.867C432.933 192.134 440.533 191.867 460.667 192.4C487.067 193.2 496 194.534 514.267 200.667C519.867 202.534 524.4 203.867 524.667 203.734C525.333 202.534 537.467 159.6 537.067 159.334C536.8 159.067 531.733 157.467 525.867 155.6C498.4 146.934 458.267 143.467 426.133 146.8Z" fill="black"/>
<path d="M968 147.467C965.467 147.733 956.8 148.667 948.667 149.333C940.667 150.133 931.733 151.067 928.933 151.6L924 152.4L924.267 301.867L924.667 451.333L953.733 451.733L982.667 452V395.067V338L1006.13 338.533C1047.07 339.333 1076.13 332.533 1099.73 316.8C1125.33 299.733 1138.13 276.4 1139.6 244C1141.73 195.6 1115.6 163.333 1064.27 151.067C1050.93 147.867 1047.47 147.6 1011.33 147.333C990.133 147.067 970.533 147.2 968 147.467ZM1047.33 193.2C1062 198.533 1070.53 205.733 1077.47 218.667C1080.27 224 1080.67 226.4 1080.67 240C1080.67 254.667 1080.4 255.867 1076.4 264.133C1065.2 286.8 1041.2 297.067 1003.2 295.733C993.467 295.333 984.933 294.667 984.133 294.133C983.067 293.467 982.667 278.267 982.667 242V190.8L987.733 190.267C990.4 189.867 1003.2 189.733 1016 190C1036 190.267 1040.4 190.667 1047.33 193.2Z" fill="black"/>
<path d="M1848.67 148.133C1842.13 148.667 1831.73 149.867 1825.73 150.667L1814.67 152.267V302.133V452H1842H1869.33V394.933V338L1890.8 338.533C1923.33 339.2 1943.6 335.467 1966 324.667C1993.07 311.6 2010.67 289.067 2015.87 260.8C2018 249.2 2017.73 224.667 2015.33 215.333C2010 194 1995.6 174.267 1977.87 163.6C1967.6 157.467 1949.33 151.333 1933.33 148.667C1919.6 146.533 1870.93 146.133 1848.67 148.133ZM1923.73 191.333C1940 195.2 1951.87 204.133 1958.27 217.2C1961.6 224 1962 226 1962 240C1962 254.4 1961.73 255.867 1957.73 264.267C1947.07 286.667 1924.4 297.067 1888.67 295.733C1879.73 295.333 1871.73 294.667 1870.93 294.133C1869.73 293.467 1869.33 279.467 1869.33 242V190.8L1873.73 190.267C1885.33 188.8 1915.87 189.467 1923.73 191.333Z" fill="#692C9F"/>
<path d="M2108 147.6C2093.87 148.667 2067.33 152.133 2066.4 153.067C2065.73 153.733 2065.47 221.067 2065.6 302.8L2066 451.333H2093.33H2120.67L2121.07 388.933L2121.33 326.667H2136.4C2180.67 326.667 2192.67 336.667 2203.6 382.4C2210.27 410.267 2218.4 439.6 2221.33 446.267L2223.87 452H2251.87C2267.33 452 2280 451.867 2280 451.6C2280 451.333 2278.53 446.667 2276.53 441.2C2274.67 435.733 2269.33 416.267 2264.53 398C2254 357.2 2251.6 349.867 2245.6 338C2240 327.2 2228.53 314.933 2220.4 311.2C2217.33 309.867 2214.67 308.4 2214.67 308C2214.67 307.6 2219.6 304.8 2225.73 301.733C2244.4 292.133 2259.47 274.8 2265.47 256.133C2269.33 244.133 2270.13 224.8 2267.6 212.4C2261.47 183.6 2241.2 162.8 2210 153.467C2192.93 148.267 2176.13 146.667 2144 146.933C2127.47 147.067 2111.33 147.333 2108 147.6ZM2175.07 190C2192.53 193.733 2206.8 205.067 2211.47 219.067C2214.27 227.467 2214.53 243.867 2212.13 251.333C2207.33 266 2194.93 277.6 2178.8 282.8C2171.6 285.2 2165.47 285.867 2145.73 286.4L2121.33 286.933V238.8V190.667L2124.4 190C2135.47 187.6 2163.73 187.6 2175.07 190Z" fill="#692C9F"/>
<path d="M3825.33 147.6C3811.2 148.667 3784.67 152.133 3783.73 153.067C3783.07 153.733 3782.8 221.067 3782.93 302.8L3783.33 451.333H3810.67H3838L3838.4 388.933L3838.67 326.667H3853.73C3880.53 326.667 3892.4 330 3902.67 340.267C3910.27 348 3915.33 359.467 3920.8 382.133C3927.87 411.333 3935.73 439.867 3938.67 446.267L3941.2 452H3969.2C3984.67 452 3997.33 451.867 3997.33 451.6C3997.33 451.333 3995.87 446.667 3993.87 441.2C3992 435.733 3986.13 414.4 3980.67 393.6C3975.2 372.933 3969.33 352.267 3967.47 347.867C3960.4 330.133 3949.2 316.533 3937.33 311.067C3934.4 309.733 3932 308.4 3932 308C3932 307.6 3937.07 304.8 3943.07 301.733C3955.73 295.2 3967.07 285.067 3974.8 272.8C3988.93 251.067 3990.4 218.933 3978.27 193.333C3972.8 181.6 3958.53 167.333 3946 160.933C3924.13 150 3903.6 146.533 3861.33 146.933C3844.8 147.067 3828.67 147.333 3825.33 147.6ZM3892.4 190C3909.87 193.733 3924.13 205.067 3928.8 219.067C3931.6 227.467 3931.87 243.867 3929.47 251.333C3924.67 266 3912.27 277.6 3896.13 282.8C3888.93 285.2 3882.8 285.867 3863.07 286.4L3838.67 286.933V238.8V190.667L3841.73 190C3852.8 187.6 3881.07 187.6 3892.4 190Z" fill="#692C9F"/>
<path d="M606.667 240.932C606.667 293.332 607.334 339.466 608 346.666C611.734 381.732 622.267 406.532 641.2 425.332C653.334 437.332 664.534 443.999 680.667 449.199C698.4 454.932 711.6 456.399 736.4 455.599C753.734 455.066 760.534 454.266 771.2 451.466C816.267 439.732 842.667 411.466 853.734 363.332C856.4 351.866 856.534 346.799 856.934 249.599L857.467 147.999H828.134H798.8L798.4 249.599L798 351.332L794.267 363.332C789.334 379.066 784.4 387.466 774.667 396.399C751.067 418.399 708 417.066 686.534 393.599C678.534 384.932 673.334 374.666 669.067 359.332C666.134 348.799 666.134 347.466 665.6 248.266L665.2 147.999H635.867H606.667V240.932Z" fill="black"/>
<path d="M1160.93 148.933C1160.4 149.333 1160 159.867 1160 172.267V194.667H1206H1252V323.333V452H1281.33H1310.67L1310.93 323.6L1311.33 195.333L1357.73 194.933L1404 194.667L1403.73 171.6L1403.33 148.667L1282.53 148.267C1216.13 148.133 1161.33 148.4 1160.93 148.933Z" fill="black"/>
<path d="M1484.67 150.267C1483.2 154.267 1383.6 447.2 1382.93 449.733C1382.4 451.867 1384.27 452 1412.67 451.733L1443.07 451.333L1456.8 408.667L1470.4 366H1521.47H1572.4L1580.8 391.333C1585.47 405.2 1592 424.667 1595.47 434.267L1601.6 452H1632.93C1662.13 452 1664.27 451.867 1663.73 449.6C1663.07 447.2 1562.27 154.4 1560.67 150.267C1559.73 148.133 1556.67 148 1522.67 148C1488.67 148 1485.6 148.133 1484.67 150.267ZM1528.8 220.667C1532.27 233.067 1541.33 261.467 1548.8 283.6L1562.67 324H1521.33C1488.93 324 1480.27 323.6 1480.67 322.267C1491.73 289.867 1510.27 230.533 1514 216C1520 191.867 1520 191.867 1521.33 195.333C1522 196.8 1525.33 208.133 1528.8 220.667Z" fill="black"/>
<path d="M2650.67 150.533C2650.67 153.6 2632.4 429.2 2631.33 442.267L2630.53 452H2656.67H2682.67V448.8C2682.67 447.067 2684.4 414 2686.53 375.2C2688.8 336.4 2691.2 289.333 2691.87 270.667C2694.4 209.6 2695.07 200.267 2696.13 204.667C2696.8 206.8 2700.27 221.067 2703.87 236.133C2713.07 274.267 2720.67 300.8 2745.2 379.333L2766.4 447.333L2787.87 447.733C2799.6 447.867 2809.33 447.867 2809.33 447.6C2809.33 447.333 2821.07 412.8 2835.33 370.933C2861.87 292.8 2874.4 254 2884 220.133C2886.93 209.467 2889.6 200.533 2890 200.267C2890.4 199.867 2890.67 208.267 2890.67 218.8C2890.67 242.533 2892.4 288.133 2896.67 377.333C2898.53 415.067 2900 447.333 2900 449.067V452L2927.07 451.733L2954 451.333L2953.73 446C2953.47 443.067 2949.73 375.6 2945.2 296C2940.8 216.4 2936.93 150.533 2936.53 149.6C2936.13 148.267 2928.27 148 2900.53 148.267L2864.93 148.667L2844.4 207.333C2821.33 273.867 2811.07 305.733 2800.53 345.2C2796.53 360.267 2792.8 373.6 2792.53 374.667C2792.13 375.733 2787.73 360.4 2782.67 340.667C2771.33 295.867 2767.6 283.2 2743.47 209.067C2732.8 176.267 2724 149.067 2724 148.667C2724 148.267 2707.47 148 2687.33 148C2652.4 148 2650.67 148.133 2650.67 150.533Z" fill="#692C9F"/>
<path d="M3286.67 171.333V194.667H3330H3373.33V323.333V452L3401.07 451.733L3428.67 451.333L3429.07 322.933L3429.33 194.667H3472.67H3516V171.333V148H3401.33H3286.67V171.333Z" fill="#692C9F"/>
<path d="M3551.33 149.6C3550.93 150.533 3550.8 218.8 3550.93 301.333L3551.33 451.333L3643.07 451.733L3734.67 452V428.667V405.333H3670.67H3606.67V361.333V317.333H3664H3721.33V294.667V272H3664H3606.67V233.333V194.667H3667.33H3728V171.333V148H3640C3570.8 148 3551.73 148.4 3551.33 149.6Z" fill="#692C9F"/>
</g>
<defs>
<clipPath id="clip0_6276_1489">
<rect width="4496" height="600" fill="white"/>
</clipPath>
</defs>
</svg>
